<?xml version="1.0" encoding="UTF-8"?>
<svg xmlns="http://www.w3.org/2000/svg" xmlns:xlink="http://www.w3.org/1999/xlink" width="300px" height="303px" viewBox="0 0 300 302" version="1.1">
<g id="surface1">
<path style="fill:none;stroke-width:2;stroke-linecap:butt;stroke-linejoin:miter;stroke:rgb(0%,0%,0%);stroke-opacity:1;stroke-miterlimit:4;" d="M 7.110026 391.827711 C 9.296094 403.835472 25.967513 415.257748 33.799154 423.241631 C 56.858984 446.756829 79.918815 470.261382 102.978646 493.776581 C 165.663607 557.668939 228.348568 621.571942 291.033529 685.474946 C 325.84082 720.955324 360.6375 756.435702 395.444792 791.926725 C 412.880273 809.704173 434.90013 810.43869 455.731445 798.516091 C 477.157031 786.263491 498.582617 774.010891 520.008203 761.747646 C 584.168229 725.053717 648.328255 688.349144 712.477669 651.655215 C 735.707292 638.359388 758.936914 625.074206 782.177148 611.789024 C 795.389063 604.230947 808.240169 598.13126 806.966732 579.949296 C 807.274479 590.743507 808.441797 606.7645 797.140039 613.194187 C 791.812826 616.228063 786.475 619.261939 781.147786 622.295814 C 751.78444 639.008744 722.431706 655.711028 693.078971 672.413312 C 621.320768 713.25886 549.562565 754.093763 477.804362 794.928666 C 463.945117 802.816743 445.947201 816.698055 429.307617 816.517087 C 410.76849 816.314828 398.22513 804.360293 386.191146 792.171565 C 337.651953 743.044068 289.123372 693.927217 240.594792 644.799721 C 185.539844 589.082859 130.495508 533.365998 75.44056 477.638491 C 58.716081 460.702013 41.98099 443.77618 25.25651 426.839701 C 14.708203 416.173233 6.791667 408.263866 7.110026 391.827711 Z M 7.110026 391.827711 " transform="matrix(0.368098,0,0,0.36695,0,0)"/>
<path style="fill:none;stroke-width:2;stroke-linecap:butt;stroke-linejoin:miter;stroke:rgb(0%,0%,0%);stroke-opacity:1;stroke-miterlimit:4;" d="M 7.110026 391.827711 C 9.296094 403.835472 25.967513 415.257748 33.799154 423.241631 C 56.858984 446.756829 79.918815 470.261382 102.978646 493.776581 C 165.663607 557.668939 228.348568 621.571942 291.033529 685.474946 C 325.84082 720.955324 360.6375 756.435702 395.444792 791.926725 C 412.880273 809.704173 434.90013 810.43869 455.731445 798.516091 C 477.157031 786.263491 498.582617 774.010891 520.008203 761.747646 C 584.168229 725.053717 648.328255 688.349144 712.477669 651.655215 C 735.707292 638.359388 758.936914 625.074206 782.177148 611.789024 C 795.389063 604.230947 808.240169 598.13126 806.966732 579.949296 C 807.274479 590.743507 808.441797 606.7645 797.140039 613.194187 C 791.812826 616.228063 786.475 619.261939 781.147786 622.295814 C 751.78444 639.008744 722.431706 655.711028 693.078971 672.413312 C 621.320768 713.25886 549.562565 754.093763 477.804362 794.928666 C 463.945117 802.816743 445.947201 816.698055 429.307617 816.517087 C 410.76849 816.314828 398.22513 804.360293 386.191146 792.171565 C 337.651953 743.044068 289.123372 693.927217 240.594792 644.799721 C 185.539844 589.082859 130.495508 533.365998 75.44056 477.638491 C 58.716081 460.702013 41.98099 443.77618 25.25651 426.839701 C 14.708203 416.173233 6.791667 408.263866 7.110026 391.827711 " transform="matrix(0.368098,0,0,0.36695,0,0)"/>
<path style="fill:none;stroke-width:2;stroke-linecap:butt;stroke-linejoin:miter;stroke:rgb(0%,0%,0%);stroke-opacity:1;stroke-miterlimit:4;" d="M 790.932031 579.236069 C 790.932031 573.093802 791.048763 567.473148 792.003841 561.416041 C 803.114583 573.838964 811.752734 581.077685 802.477865 597.588356 C 799.591406 602.719332 793.680534 605.199659 788.820247 607.97805 C 762.661719 622.94517 736.50319 637.91229 710.355273 652.868766 C 636.867318 694.895928 563.389974 736.933736 489.91263 778.971544 C 474.663216 787.689945 459.254622 798.675768 442.487695 804.402874 C 422.112695 811.36482 405.536784 802.209967 391.337956 787.732525 C 347.563542 743.107939 303.789128 698.483353 260.014714 653.858767 C 199.059505 591.722863 138.104297 529.576314 77.149089 467.44041 C 58.238542 448.161993 39.327995 428.883576 20.417448 409.605158 C 17.21263 406.326444 13.997201 403.058374 10.792383 399.790304 C 1.517513 390.337386 11.036458 375.806718 21.361914 372.229938 C 21.361914 378.393496 19.313802 386.164476 23.770833 390.741903 C 27.474414 394.542231 31.124935 398.385141 34.870964 402.132243 C 38.50026 405.762249 42.118945 409.392255 45.73763 413.011615 C 65.327344 432.641323 84.917057 452.271032 104.506771 471.890095 C 166.809701 534.313418 229.11263 596.726097 291.41556 659.149421 C 334.500195 702.315617 377.584831 745.471169 420.669466 788.637365 C 427.344401 795.322537 438.97513 783.229615 446.010872 779.152512 C 476.233789 761.630549 506.456706 744.119231 536.690234 726.597268 C 621.4375 677.480417 706.184766 628.352921 790.932031 579.236069 Z M 790.932031 579.236069 " transform="matrix(0.368098,0,0,0.36695,0,0)"/>
<path style="fill:none;stroke-width:2;stroke-linecap:butt;stroke-linejoin:miter;stroke:rgb(0%,0%,0%);stroke-opacity:1;stroke-miterlimit:4;" d="M 790.932031 579.236069 C 790.932031 573.093802 791.048763 567.473148 792.003841 561.416041 C 803.114583 573.838964 811.752734 581.077685 802.477865 597.588356 C 799.591406 602.719332 793.680534 605.199659 788.820247 607.97805 C 762.661719 622.94517 736.50319 637.91229 710.355273 652.868766 C 636.867318 694.895928 563.389974 736.933736 489.91263 778.971544 C 474.663216 787.689945 459.254622 798.675768 442.487695 804.402874 C 422.112695 811.36482 405.536784 802.209967 391.337956 787.732525 C 347.563542 743.107939 303.789128 698.483353 260.014714 653.858767 C 199.059505 591.722863 138.104297 529.576314 77.149089 467.44041 C 58.238542 448.161993 39.327995 428.883576 20.417448 409.605158 C 17.21263 406.326444 13.997201 403.058374 10.792383 399.790304 C 1.517513 390.337386 11.036458 375.806718 21.361914 372.229938 C 21.361914 378.393496 19.313802 386.164476 23.770833 390.741903 C 27.474414 394.542231 31.124935 398.385141 34.870964 402.132243 C 38.50026 405.762249 42.118945 409.392255 45.73763 413.011615 C 65.327344 432.641323 84.917057 452.271032 104.506771 471.890095 C 166.809701 534.313418 229.11263 596.726097 291.41556 659.149421 C 334.500195 702.315617 377.584831 745.471169 420.669466 788.637365 C 427.344401 795.322537 438.97513 783.229615 446.010872 779.152512 C 476.233789 761.630549 506.456706 744.119231 536.690234 726.597268 C 621.4375 677.480417 706.184766 628.352921 790.932031 579.236069 " transform="matrix(0.368098,0,0,0.36695,0,0)"/>
<path style="fill:none;stroke-width:2;stroke-linecap:butt;stroke-linejoin:miter;stroke:rgb(0%,0%,0%);stroke-opacity:1;stroke-miterlimit:4;" d="M 235.129622 217.257437 C 238.291992 198.26644 231.500326 181.766414 211.125326 177.071891 C 192.395182 172.749948 172.00957 184.981258 162.161654 200.459347 C 152.60026 215.469047 162.713477 238.909729 179.554688 243.614898 C 189.147917 246.297483 196.502018 239.324891 204.429167 234.800691 C 214.659115 228.945843 224.899674 223.10164 235.129622 217.257437 Z M 235.129622 217.257437 " transform="matrix(0.368098,0,0,0.36695,0,0)"/>
<path style="fill:none;stroke-width:2;stroke-linecap:butt;stroke-linejoin:miter;stroke:rgb(0%,0%,0%);stroke-opacity:1;stroke-miterlimit:4;" d="M 235.129622 217.257437 C 238.291992 198.26644 231.500326 181.766414 211.125326 177.071891 C 192.395182 172.749948 172.00957 184.981258 162.161654 200.459347 C 152.60026 215.469047 162.713477 238.909729 179.554688 243.614898 C 189.147917 246.297483 196.502018 239.324891 204.429167 234.800691 C 214.659115 228.945843 224.899674 223.10164 235.129622 217.257437 " transform="matrix(0.368098,0,0,0.36695,0,0)"/>
<path style="fill:none;stroke-width:2;stroke-linecap:butt;stroke-linejoin:miter;stroke:rgb(0%,0%,0%);stroke-opacity:1;stroke-miterlimit:4;" d="M 206.986654 222.239381 C 198.390951 226.146161 188.489974 228.679713 181.008529 221.196153 C 172.869141 213.063237 181.114648 202.449995 188.033659 197.499987 C 206.615234 184.24674 229.070182 209.550329 206.986654 222.239381 Z M 206.986654 222.239381 " transform="matrix(0.368098,0,0,0.36695,0,0)"/>
<path style="fill:none;stroke-width:2;stroke-linecap:butt;stroke-linejoin:miter;stroke:rgb(0%,0%,0%);stroke-opacity:1;stroke-miterlimit:4;" d="M 206.986654 222.239381 C 198.390951 226.146161 188.489974 228.679713 181.008529 221.196153 C 172.869141 213.063237 181.114648 202.449995 188.033659 197.499987 C 206.615234 184.24674 229.070182 209.550329 206.986654 222.239381 " transform="matrix(0.368098,0,0,0.36695,0,0)"/>
<path style="fill:none;stroke-width:2;stroke-linecap:butt;stroke-linejoin:miter;stroke:rgb(0%,0%,0%);stroke-opacity:1;stroke-miterlimit:4;" d="M 156.749544 282.097216 C 138.412044 265.778159 113.166146 283.374638 116.1375 305.612415 C 129.667773 297.766918 143.208659 289.932067 156.749544 282.097216 Z M 156.749544 282.097216 " transform="matrix(0.368098,0,0,0.36695,0,0)"/>
<path style="fill:none;stroke-width:2;stroke-linecap:butt;stroke-linejoin:miter;stroke:rgb(0%,0%,0%);stroke-opacity:1;stroke-miterlimit:4;" d="M 156.749544 282.097216 C 138.412044 265.778159 113.166146 283.374638 116.1375 305.612415 C 129.667773 297.766918 143.208659 289.932067 156.749544 282.097216 " transform="matrix(0.368098,0,0,0.36695,0,0)"/>
<path style="fill:none;stroke-width:2;stroke-linecap:butt;stroke-linejoin:miter;stroke:rgb(0%,0%,0%);stroke-opacity:1;stroke-miterlimit:4;" d="M 288.582161 187.685133 C 298.589258 186.929325 309.010221 192.624496 312.798698 202.109349 C 317.775716 214.542917 311.992188 225.007127 307.397201 236.610371 C 304.913997 242.891026 297.008073 245.147804 291.288216 248.373293 C 276.728581 256.580725 262.168945 264.798802 247.598698 273.006234 C 233.612109 280.904957 219.625521 288.793033 205.638932 296.68111 C 200.428451 299.619179 192.352734 307.092094 186.314518 304.963059 C 179.310612 302.482732 172.306706 300.013051 165.292188 297.54337 C 164.315885 297.192079 161.599219 287.824322 160.060482 286.003997 C 152.632096 277.221725 141.510742 273.133977 130.389388 277.817855 C 156.579753 262.531379 182.738281 247.191678 209.077214 232.139396 C 221.12181 225.251966 233.18763 218.396471 245.157943 211.370654 C 254.188737 206.069355 263.219531 200.768057 272.250326 195.466758 C 277.057552 192.645786 282.671289 187.727714 288.582161 187.685133 Z M 288.582161 187.685133 " transform="matrix(0.368098,0,0,0.36695,0,0)"/>
<path style="fill:none;stroke-width:2;stroke-linecap:butt;stroke-linejoin:miter;stroke:rgb(0%,0%,0%);stroke-opacity:1;stroke-miterlimit:4;" d="M 288.582161 187.685133 C 298.589258 186.929325 309.010221 192.624496 312.798698 202.109349 C 317.775716 214.542917 311.992188 225.007127 307.397201 236.610371 C 304.913997 242.891026 297.008073 245.147804 291.288216 248.373293 C 276.728581 256.580725 262.168945 264.798802 247.598698 273.006234 C 233.612109 280.904957 219.625521 288.793033 205.638932 296.68111 C 200.428451 299.619179 192.352734 307.092094 186.314518 304.963059 C 179.310612 302.482732 172.306706 300.013051 165.292188 297.54337 C 164.315885 297.192079 161.599219 287.824322 160.060482 286.003997 C 152.632096 277.221725 141.510742 273.133977 130.389388 277.817855 C 156.579753 262.531379 182.738281 247.191678 209.077214 232.139396 C 221.12181 225.251966 233.18763 218.396471 245.157943 211.370654 C 254.188737 206.069355 263.219531 200.768057 272.250326 195.466758 C 277.057552 192.645786 282.671289 187.727714 288.582161 187.685133 " transform="matrix(0.368098,0,0,0.36695,0,0)"/>
<path style="fill:none;stroke-width:2;stroke-linecap:butt;stroke-linejoin:miter;stroke:rgb(0%,0%,0%);stroke-opacity:1;stroke-miterlimit:4;" d="M 163.519987 291.709812 C 163.371419 300.83273 177.665755 301.907893 184.372526 304.271122 C 189.975651 306.251125 190.166667 305.410156 195.313477 302.504023 C 215.16849 291.305295 235.034115 280.106568 254.889128 268.897196 C 271.592383 259.476213 288.295638 250.065876 304.988281 240.644893 C 309.413477 238.153922 311.493424 226.273903 313.339909 221.611315 C 316.236979 214.298078 315.027214 206.399356 311.7375 199.437409 C 318.86875 210.135813 325.936328 220.887443 333.014518 231.628428 C 336.527083 236.972307 337.556445 237.461985 336.261784 243.582963 C 335.688737 246.254902 334.595703 260.551376 332.345964 261.818152 C 309.901628 274.464624 287.467904 287.111095 265.023568 299.768212 C 241.836393 312.829845 218.649219 325.902124 195.451432 338.974402 C 192.692318 340.539244 169.123112 333.76891 167.096224 331.0331 C 159.253971 320.419857 151.411719 309.806615 143.569466 299.193372 C 149.745638 295.637883 155.92181 292.071748 162.097982 288.505614 C 162.564909 289.580777 163.042448 290.645294 163.519987 291.709812 Z M 163.519987 291.709812 " transform="matrix(0.368098,0,0,0.36695,0,0)"/>
<path style="fill:none;stroke-width:2;stroke-linecap:butt;stroke-linejoin:miter;stroke:rgb(0%,0%,0%);stroke-opacity:1;stroke-miterlimit:4;" d="M 163.519987 291.709812 C 163.371419 300.83273 177.665755 301.907893 184.372526 304.271122 C 189.975651 306.251125 190.166667 305.410156 195.313477 302.504023 C 215.16849 291.305295 235.034115 280.106568 254.889128 268.897196 C 271.592383 259.476213 288.295638 250.065876 304.988281 240.644893 C 309.413477 238.153922 311.493424 226.273903 313.339909 221.611315 C 316.236979 214.298078 315.027214 206.399356 311.7375 199.437409 C 318.86875 210.135813 325.936328 220.887443 333.014518 231.628428 C 336.527083 236.972307 337.556445 237.461985 336.261784 243.582963 C 335.688737 246.254902 334.595703 260.551376 332.345964 261.818152 C 309.901628 274.464624 287.467904 287.111095 265.023568 299.768212 C 241.836393 312.829845 218.649219 325.902124 195.451432 338.974402 C 192.692318 340.539244 169.123112 333.76891 167.096224 331.0331 C 159.253971 320.419857 151.411719 309.806615 143.569466 299.193372 C 149.745638 295.637883 155.92181 292.071748 162.097982 288.505614 C 162.564909 289.580777 163.042448 290.645294 163.519987 291.709812 " transform="matrix(0.368098,0,0,0.36695,0,0)"/>
<path style="fill:none;stroke-width:2;stroke-linecap:butt;stroke-linejoin:miter;stroke:rgb(0%,0%,0%);stroke-opacity:1;stroke-miterlimit:4;" d="M 34.541992 372.943165 C 72.904297 351.09926 111.266602 329.24471 149.628906 307.390159 C 147.602018 304.664994 145.585742 301.929183 143.569466 299.193372 C 149.745638 295.637883 155.92181 292.071748 162.097982 288.505614 C 158.341341 283.81109 158.160938 281.277538 152.823112 284.364639 C 145.055143 288.86755 137.297786 293.359815 129.54043 297.85208 C 121.146354 302.706281 112.762891 307.549837 104.358203 312.382748 C 76.692773 328.297289 49.027344 344.21183 21.361914 360.126371 C 25.755273 364.395087 30.148633 368.674449 34.541992 372.943165 Z M 34.541992 372.943165 " transform="matrix(0.368098,0,0,0.36695,0,0)"/>
<path style="fill:none;stroke-width:2;stroke-linecap:butt;stroke-linejoin:miter;stroke:rgb(0%,0%,0%);stroke-opacity:1;stroke-miterlimit:4;" d="M 34.541992 372.943165 C 72.904297 351.09926 111.266602 329.24471 149.628906 307.390159 C 147.602018 304.664994 145.585742 301.929183 143.569466 299.193372 C 149.745638 295.637883 155.92181 292.071748 162.097982 288.505614 C 158.341341 283.81109 158.160938 281.277538 152.823112 284.364639 C 145.055143 288.86755 137.297786 293.359815 129.54043 297.85208 C 121.146354 302.706281 112.762891 307.549837 104.358203 312.382748 C 76.692773 328.297289 49.027344 344.21183 21.361914 360.126371 C 25.755273 364.395087 30.148633 368.674449 34.541992 372.943165 " transform="matrix(0.368098,0,0,0.36695,0,0)"/>
<path style="fill:none;stroke-width:2;stroke-linecap:butt;stroke-linejoin:miter;stroke:rgb(0%,0%,0%);stroke-opacity:1;stroke-miterlimit:4;" d="M 388.334766 149.564751 C 392.611393 153.950564 396.888021 158.347022 401.164648 162.743481 C 383.845898 172.707368 366.53776 182.671254 349.229622 192.645786 C 340.15638 197.861923 331.083138 203.088706 322.009896 208.315488 C 315.642708 211.977429 312.459115 199.841926 308.171875 195.158048 C 334.892839 179.956734 361.613802 164.766065 388.334766 149.564751 Z M 388.334766 149.564751 " transform="matrix(0.368098,0,0,0.36695,0,0)"/>
<path style="fill:none;stroke-width:2;stroke-linecap:butt;stroke-linejoin:miter;stroke:rgb(0%,0%,0%);stroke-opacity:1;stroke-miterlimit:4;" d="M 388.334766 149.564751 C 392.611393 153.950564 396.888021 158.347022 401.164648 162.743481 C 383.845898 172.707368 366.53776 182.671254 349.229622 192.645786 C 340.15638 197.861923 331.083138 203.088706 322.009896 208.315488 C 315.642708 211.977429 312.459115 199.841926 308.171875 195.158048 C 334.892839 179.956734 361.613802 164.766065 388.334766 149.564751 " transform="matrix(0.368098,0,0,0.36695,0,0)"/>
<path style="fill:none;stroke-width:2;stroke-linecap:butt;stroke-linejoin:miter;stroke:rgb(0%,0%,0%);stroke-opacity:1;stroke-miterlimit:4;" d="M 34.541992 401.802243 C 34.541992 393.073197 34.541992 384.344151 34.541992 375.615105 C 34.541992 369.526063 25.543034 364.182184 21.361914 360.126371 C 21.361914 368.1209 21.361914 376.115428 21.361914 384.109957 C 21.361914 391.668033 29.448242 396.564815 34.541992 401.802243 Z M 34.541992 401.802243 " transform="matrix(0.368098,0,0,0.36695,0,0)"/>
<path style="fill:none;stroke-width:2;stroke-linecap:butt;stroke-linejoin:miter;stroke:rgb(0%,0%,0%);stroke-opacity:1;stroke-miterlimit:4;" d="M 34.541992 401.802243 C 34.541992 393.073197 34.541992 384.344151 34.541992 375.615105 C 34.541992 369.526063 25.543034 364.182184 21.361914 360.126371 C 21.361914 368.1209 21.361914 376.115428 21.361914 384.109957 C 21.361914 391.668033 29.448242 396.564815 34.541992 401.802243 " transform="matrix(0.368098,0,0,0.36695,0,0)"/>
<path style="fill:none;stroke-width:2;stroke-linecap:butt;stroke-linejoin:miter;stroke:rgb(0%,0%,0%);stroke-opacity:1;stroke-miterlimit:4;" d="M 423.95918 749.175691 C 371.769466 717.229512 328.695443 673.829121 288.773177 627.905823 C 276.155534 613.407091 261.330599 600.366748 247.76849 586.76221 C 217.386393 556.295711 187.004297 525.839857 156.632812 495.373357 C 115.935872 454.559745 75.238932 413.756778 34.541992 372.943165 C 34.541992 379.564466 30.912695 398.172237 35.60319 402.866761 C 39.996549 407.263219 44.389909 411.670323 48.783268 416.066781 C 69.466016 436.792943 90.148763 457.508459 110.83151 478.234621 C 173.516471 541.030526 236.201432 603.837076 298.897005 666.643626 C 340.580859 708.404659 382.264714 750.165692 423.95918 791.937371 C 423.95918 777.683477 423.95918 763.429584 423.95918 749.175691 Z M 423.95918 749.175691 " transform="matrix(0.368098,0,0,0.36695,0,0)"/>
<path style="fill:none;stroke-width:2;stroke-linecap:butt;stroke-linejoin:miter;stroke:rgb(0%,0%,0%);stroke-opacity:1;stroke-miterlimit:4;" d="M 423.95918 749.175691 C 371.769466 717.229512 328.695443 673.829121 288.773177 627.905823 C 276.155534 613.407091 261.330599 600.366748 247.76849 586.76221 C 217.386393 556.295711 187.004297 525.839857 156.632812 495.373357 C 115.935872 454.559745 75.238932 413.756778 34.541992 372.943165 C 34.541992 379.564466 30.912695 398.172237 35.60319 402.866761 C 39.996549 407.263219 44.389909 411.670323 48.783268 416.066781 C 69.466016 436.792943 90.148763 457.508459 110.83151 478.234621 C 173.516471 541.030526 236.201432 603.837076 298.897005 666.643626 C 340.580859 708.404659 382.264714 750.165692 423.95918 791.937371 L 423.95918 749.175691 " transform="matrix(0.368098,0,0,0.36695,0,0)"/>
<path style="fill:none;stroke-width:2;stroke-linecap:butt;stroke-linejoin:miter;stroke:rgb(0%,0%,0%);stroke-opacity:1;stroke-miterlimit:4;" d="M 790.932031 579.236069 C 790.932031 566.71734 791.62181 554.358288 795.919661 542.542141 C 677.086719 608.563535 558.243164 674.574283 439.410221 740.595677 C 434.327083 743.427295 429.233333 746.248267 424.150195 749.079884 C 420.520898 751.091823 423.95918 786.348652 423.95918 791.937371 C 541.200326 723.978554 658.452083 656.030383 775.693229 588.071567 C 780.776367 585.122853 785.848893 582.174139 790.932031 579.236069 Z M 790.932031 579.236069 " transform="matrix(0.368098,0,0,0.36695,0,0)"/>
<path style="fill:none;stroke-width:2;stroke-linecap:butt;stroke-linejoin:miter;stroke:rgb(0%,0%,0%);stroke-opacity:1;stroke-miterlimit:4;" d="M 790.932031 579.236069 C 790.932031 566.71734 791.62181 554.358288 795.919661 542.542141 C 677.086719 608.563535 558.243164 674.574283 439.410221 740.595677 C 434.327083 743.427295 429.233333 746.248267 424.150195 749.079884 C 420.520898 751.091823 423.95918 786.348652 423.95918 791.937371 C 541.200326 723.978554 658.452083 656.030383 775.693229 588.071567 C 780.776367 585.122853 785.848893 582.174139 790.932031 579.236069 " transform="matrix(0.368098,0,0,0.36695,0,0)"/>
<path style="fill:none;stroke-width:2;stroke-linecap:butt;stroke-linejoin:miter;stroke:rgb(0%,0%,0%);stroke-opacity:1;stroke-miterlimit:4;" d="M 293.208984 648.35521 L 423.95918 774.479279 " transform="matrix(0.368098,0,0,0.36695,0,0)"/>
<path style="fill:none;stroke-width:2;stroke-linecap:butt;stroke-linejoin:miter;stroke:rgb(0%,0%,0%);stroke-opacity:1;stroke-miterlimit:4;" d="M 398.670833 749.899563 L 423.95918 768.070882 " transform="matrix(0.368098,0,0,0.36695,0,0)"/>
<path style="fill:none;stroke-width:2;stroke-linecap:butt;stroke-linejoin:miter;stroke:rgb(0%,0%,0%);stroke-opacity:1;stroke-miterlimit:4;" d="M 288.582161 627.69292 C 308.935938 649.962632 329.671745 671.817182 353.803385 690.105598 C 366.665104 699.856581 379.611719 709.256273 393.322396 717.825642 C 400.230794 722.147584 407.372656 726.12888 414.387174 730.2805 C 418.695638 732.824697 427.556641 739.509869 432.16224 739.201159 C 435.802148 738.966965 441.904036 733.761473 444.992122 732.036954 C 456.421224 725.649847 467.850326 719.262741 479.279427 712.875634 C 515.190365 692.820118 551.09069 672.764603 587.001628 652.709088 C 634.320443 626.266466 681.64987 599.823844 728.979297 573.391867 C 744.557682 564.684111 760.136068 555.987001 775.703841 547.28989 C 783.004883 543.212787 788.745964 536.346647 795.919661 542.542141 C 677.086719 608.563535 558.243164 674.574283 439.410221 740.595677 C 431.302669 745.098588 426.781966 750.910855 418.716862 745.971492 C 402.321354 735.933089 387.167448 724.223394 372.469857 711.832406 C 341.896745 686.06043 314.783138 657.829418 288.582161 627.69292 Z M 288.582161 627.69292 " transform="matrix(0.368098,0,0,0.36695,0,0)"/>
<path style="fill:none;stroke-width:2;stroke-linecap:butt;stroke-linejoin:miter;stroke:rgb(0%,0%,0%);stroke-opacity:1;stroke-miterlimit:4;" d="M 288.582161 627.69292 C 308.935938 649.962632 329.671745 671.817182 353.803385 690.105598 C 366.665104 699.856581 379.611719 709.256273 393.322396 717.825642 C 400.230794 722.147584 407.372656 726.12888 414.387174 730.2805 C 418.695638 732.824697 427.556641 739.509869 432.16224 739.201159 C 435.802148 738.966965 441.904036 733.761473 444.992122 732.036954 C 456.421224 725.649847 467.850326 719.262741 479.279427 712.875634 C 515.190365 692.820118 551.09069 672.764603 587.001628 652.709088 C 634.320443 626.266466 681.64987 599.823844 728.979297 573.391867 C 744.557682 564.684111 760.136068 555.987001 775.703841 547.28989 C 783.004883 543.212787 788.745964 536.346647 795.919661 542.542141 C 677.086719 608.563535 558.243164 674.574283 439.410221 740.595677 C 431.302669 745.098588 426.781966 750.910855 418.716862 745.971492 C 402.321354 735.933089 387.167448 724.223394 372.469857 711.832406 C 341.896745 686.06043 314.783138 657.829418 288.582161 627.69292 " transform="matrix(0.368098,0,0,0.36695,0,0)"/>
<path style="fill:none;stroke-width:2;stroke-linecap:butt;stroke-linejoin:miter;stroke:rgb(0%,0%,0%);stroke-opacity:1;stroke-miterlimit:4;" d="M 314.942318 651.208118 C 338.999674 671.09331 363.53457 689.679791 389.311068 707.286915 C 403.255208 716.824995 428.564779 733.623086 445.681901 723.978554 C 507.836263 688.987854 569.980013 653.986509 632.123763 618.995809 C 669.488542 597.960938 706.842708 576.926066 744.207487 555.891194 C 755.647201 549.450861 767.097526 542.999884 778.53724 536.559551 C 787.589258 531.460511 787.101107 529.512443 795.919661 536.123099 C 677.086719 598.482551 561.193294 667.122659 444.026432 732.579858 C 432.236523 739.158578 433.265885 739.744063 420.149479 733.335666 C 403.021745 724.979201 387.146224 713.737893 371.291927 703.252393 C 340.029036 682.579457 313.690104 655.178769 288.582161 627.69292 C 297.36888 635.527771 306.155599 643.362622 314.942318 651.208118 Z M 314.942318 651.208118 " transform="matrix(0.368098,0,0,0.36695,0,0)"/>
<path style="fill:none;stroke-width:2;stroke-linecap:butt;stroke-linejoin:miter;stroke:rgb(0%,0%,0%);stroke-opacity:1;stroke-miterlimit:4;" d="M 314.942318 651.208118 C 338.999674 671.09331 363.53457 689.679791 389.311068 707.286915 C 403.255208 716.824995 428.564779 733.623086 445.681901 723.978554 C 507.836263 688.987854 569.980013 653.986509 632.123763 618.995809 C 669.488542 597.960938 706.842708 576.926066 744.207487 555.891194 C 755.647201 549.450861 767.097526 542.999884 778.53724 536.559551 C 787.589258 531.460511 787.101107 529.512443 795.919661 536.123099 C 677.086719 598.482551 561.193294 667.122659 444.026432 732.579858 C 432.236523 739.158578 433.265885 739.744063 420.149479 733.335666 C 403.021745 724.979201 387.146224 713.737893 371.291927 703.252393 C 340.029036 682.579457 313.690104 655.178769 288.582161 627.69292 L 314.942318 651.208118 " transform="matrix(0.368098,0,0,0.36695,0,0)"/>
<path style="fill:none;stroke-width:2;stroke-linecap:butt;stroke-linejoin:miter;stroke:rgb(0%,0%,0%);stroke-opacity:1;stroke-miterlimit:4;" d="M 423.95918 774.479279 L 474.917904 744.545038 " transform="matrix(0.368098,0,0,0.36695,0,0)"/>
<path style="fill:none;stroke-width:2;stroke-linecap:butt;stroke-linejoin:miter;stroke:rgb(0%,0%,0%);stroke-opacity:1;stroke-miterlimit:4;" d="M 423.95918 768.070882 L 457.100391 748.8244 " transform="matrix(0.368098,0,0,0.36695,0,0)"/>
<path style="fill:none;stroke-width:2;stroke-linecap:butt;stroke-linejoin:miter;stroke:rgb(0%,0%,0%);stroke-opacity:1;stroke-miterlimit:4;" d="M 423.95918 758.798932 L 514.458138 707.499819 " transform="matrix(0.368098,0,0,0.36695,0,0)"/>
<path style="fill:none;stroke-width:2;stroke-linecap:butt;stroke-linejoin:miter;stroke:rgb(0%,0%,0%);stroke-opacity:1;stroke-miterlimit:4;" d="M 725.021029 600.260296 L 789.870833 563.204431 " transform="matrix(0.368098,0,0,0.36695,0,0)"/>
<path style="fill:none;stroke-width:2;stroke-linecap:butt;stroke-linejoin:miter;stroke:rgb(0%,0%,0%);stroke-opacity:1;stroke-miterlimit:4;" d="M 552.226172 317.726627 C 551.547005 324.18825 552.852279 328.275999 548.989518 333.513426 C 544.256576 339.943114 553.807357 342.370214 550.836003 346.92635 C 546.463867 353.632813 548.225456 355.932171 546.877734 362.968634 C 546.272852 366.130251 548.29974 364.725088 545.08431 368.344448 C 542.357031 371.420905 539.629753 374.497361 536.902474 377.573818 C 541.890104 380.405435 544.458203 385.366088 545.816536 390.763193 C 533.835612 391.550936 542.664779 399.619981 541.179102 405.006441 C 540.266471 408.349027 535.926172 408.019027 535.692708 412.191937 C 535.406185 417.397429 535.597201 421.527758 533.273177 426.169055 C 532.307487 428.106478 528.773698 430.852934 529.251237 432.864872 C 530.227539 436.984556 532.020964 438.826172 528.349219 441.178756 C 523.297917 444.425535 533.071549 452.952323 529.675716 459.733301 C 526.205599 466.673957 527.181901 473.156871 523.446484 479.69301 C 519.265365 487.006247 531.904232 491.445287 525.271745 498.375297 C 522.024479 501.771109 519.392708 502.228852 522.894661 505.72047 C 524.963997 507.79628 518.840885 511.074995 518.023763 513.321127 C 516.697266 516.940488 520.570638 516.993714 517.153581 522.114044 C 515.476888 524.605016 522.119987 526.542438 521.897135 529.129217 C 521.271029 536.644712 522.873438 544.032466 516.591146 548.599247 C 512.27207 551.75022 513.375716 558.382166 513.747135 564.279594 C 513.980599 568.016052 518.586198 577.309292 514.925065 580.854136 C 512.972461 582.738333 506.552214 586.964469 505.904883 589.572537 C 505.639583 590.637055 507.984831 596.726097 507.783203 599.153197 C 507.464844 602.910945 507.167708 602.932236 507.687695 606.317402 C 507.963607 608.116437 512.027995 613.556123 510.542318 615.578707 C 508.260742 618.687099 504.429818 616.355805 503.941667 613.800962 C 503.10332 609.287407 499.091992 607.860953 495.409635 605.231594 C 491.186068 602.219009 482.250781 600.302877 477.220703 600.792555 C 471.606966 601.335459 471.872266 601.569653 468.699284 596.939 C 466.417708 593.60706 463.594922 595.012223 459.721549 594.118028 C 453.598438 592.712865 451.794401 587.922535 445.554557 587.368985 C 436.693555 586.591887 436.799674 584.367045 432.151628 576.628001 C 431.249609 575.127031 426.431771 576.031871 424.776302 576.031871 C 422.83431 576.031871 421.040885 571.656703 420.075195 570.198313 C 416.520182 564.865079 412.975781 567.419922 408.062435 568.473794 C 406.26901 568.857021 401.345052 570.113152 399.732031 568.548311 C 396.368034 565.269596 400.941797 564.716047 400.803841 563.917658 C 400.602214 562.778624 401.504232 557.860552 400.31569 557.860552 C 396.707617 557.860552 393.099544 557.860552 389.491471 557.860552 C 381.92513 557.860552 380.842708 555.433451 375.260807 550.015056 C 373.615951 548.407634 371.981706 545.74634 369.583398 545.74634 C 364.479036 545.74634 365.476562 543.808917 364.457812 538.976006 C 361.49707 540.753751 358.525716 542.542141 355.554362 544.319886 C 353.431966 537.964714 353.750326 539.816975 349.006771 537.262133 C 344.3375 534.739225 341.366146 530.268251 336.314844 534.696645 C 333.927148 530.981478 335.232422 525.084049 329.194206 527.926312 C 334.20306 515.918551 321.606641 520.708881 317.075326 516.174035 C 314.050911 513.150805 318.70957 508.850153 312.798698 509.403702 C 308.851042 509.776283 307.842904 520.187267 303.53444 513.683063 C 304.478906 517.781457 294.164062 522.45469 290.715169 525.084049 C 291.182096 521.400817 291.659635 517.717586 292.137174 514.034354 C 293.707747 515.162743 295.893815 515.428873 297.485612 516.525326 C 297.517448 511.639189 298.65293 509.478218 301.401432 505.667244 C 305.296029 500.248849 303.927083 499.769816 301.051237 493.723355 C 302.749154 493.063354 309.317969 491.594319 309.190625 489.752703 C 308.882878 485.398826 306.654362 480.768173 311.206901 479.352364 C 314.931706 478.202685 318.858138 478.628492 318.858138 474.487518 C 318.858138 467.663959 317.669596 467.355249 324.631055 467.355249 C 330.191732 467.355249 326.785286 464.587503 329.194206 460.584916 C 332.409635 455.230391 334.691211 458.541041 333.460221 452.398774 C 332.409635 447.129411 334.160612 447.054894 338.670703 447.054894 C 342.703255 447.054894 343.403646 443.914567 345.579102 440.635852 C 352.063021 447.927799 351.585482 446.895217 360.287305 442.424242 C 368.246289 438.336494 364.043945 448.044896 372.512305 445.926506 C 374.019206 445.553924 379.091732 443.286501 379.717839 445.021665 C 380.938216 448.353606 380.768424 452.036838 384.535677 452.036838 C 394.351758 452.036838 393.608919 451.706837 395.455404 461.298143 C 398.310026 460.584916 401.154036 459.882334 404.008659 459.169107 C 404.125391 462.852339 404.252734 466.524925 404.369466 470.208157 C 406.32207 470.13364 412.912109 468.771058 413.548828 470.68719 C 414.854102 474.59397 416.297331 477.510749 419.279297 480.491398 C 423.672656 484.887857 423.460417 481.257851 428.766406 481.257851 C 434.401367 481.257851 434.390755 482.375595 437.733529 487.006247 C 439.144922 488.96496 444.992122 486.835925 445.480273 488.996896 C 445.841081 490.636253 447.008398 499.524977 448.46224 499.354654 C 450.966667 499.045944 460.517448 496.299488 462.438216 497.64078 C 464.104297 498.81175 464.486328 507.902732 464.932031 510.116929 C 466.247917 508.796927 471.309831 505.209502 470.811068 503.410467 C 470.078841 500.727882 467.181771 494.958195 467.786654 492.296901 C 468.741732 488.113346 472.965299 493.052709 472.413477 485.707536 C 472.095117 481.311077 472.551432 478.085588 473.846094 473.774291 C 474.599544 471.251384 477.475391 467.461701 475.087695 465.758472 C 472.466536 463.874276 475.193815 459.36072 476.488477 456.9762 C 478.324349 453.612324 480.733268 453.66555 479.247591 449.75877 C 477.019076 443.914567 478.059049 444.212632 482.388737 439.571334 C 488.522461 433.00326 485.593555 429.703254 485.275195 420.718724 C 485.158464 417.610332 487.556771 414.693553 489.403255 412.436776 C 491.589323 409.764836 486.325781 407.103541 488.257161 403.941924 C 492.544401 396.894816 498.253646 391.859647 495.759831 383.811892 C 492.86276 374.508007 502.986589 370.50542 502.34987 362.255407 C 502.19069 360.254113 497.553255 356.805076 498.763021 354.98475 C 501.150716 351.397325 503.538411 347.820545 505.926107 344.23312 C 507.146484 342.40215 504.546549 336.270527 504.06901 334.226653 C 502.753125 328.520838 504.12207 329.223419 509.290104 326.274705 C 512.441862 324.47567 515.848307 324.16696 515.031185 320.451793 C 514.649154 318.663403 512.059831 311.93565 513.694076 310.892423 C 520.517578 306.517255 526.216211 302.312409 525.685612 293.317234 C 525.218685 285.524964 512.632878 277.093983 507.507292 271.835265 C 492.777865 256.729757 478.059049 241.62425 463.329622 226.518742 C 458.830143 221.898735 404.295182 160.944446 401.069141 162.796707 C 373.66901 178.572861 346.258268 194.349014 318.858138 210.125168 C 323.134766 216.629372 327.422005 223.12293 331.698633 229.627134 C 337.301758 238.143277 337.322982 238.569084 335.179362 248.682003 C 334.394076 252.365234 334.627539 260.530086 331.030078 262.563315 C 326.201628 265.277835 321.373177 268.003001 316.555339 270.717521 C 280.867253 290.836908 245.179167 310.945649 209.491081 331.065035 C 196.703646 338.271821 196.077539 339.325693 181.507292 335.53601 C 175.076432 333.864717 169.208008 333.886007 165.24974 328.531483 C 162.745313 325.146316 153.523503 307.964999 149.628906 307.390159 C 147.803646 307.12403 142.380924 311.520488 140.874023 312.372103 C 132.872591 316.938884 124.871159 321.49502 116.869727 326.051156 C 97.513477 337.079561 78.157227 348.107965 58.790365 359.13637 C 50.714648 363.735086 42.62832 368.344448 34.541992 372.943165 C 79.186589 417.716784 123.831185 462.479757 168.465169 507.242731 C 210.891862 549.791507 251.822266 594.905771 296.679102 634.91035 C 320.142188 655.83877 344.135872 675.766543 369.80625 693.959153 C 380.991276 701.88981 392.876693 712.141117 405.4625 717.804351 C 412.943945 721.168227 433.456901 730.865985 441.511393 726.331139 C 495.32474 696.034962 549.127474 665.728141 602.94082 635.431964 C 670.49668 597.396743 738.317839 559.787329 805.544727 521.155978 C 780.404948 524.881791 751.869336 503.708532 732.682878 490.167865 C 713.082552 476.329134 693.450391 461.755885 676.60918 444.574568 C 635.148177 402.291921 593.687174 360.009274 552.226172 317.726627 Z M 552.226172 317.726627 " transform="matrix(0.368098,0,0,0.36695,0,0)"/>
<path style="fill:none;stroke-width:2;stroke-linecap:butt;stroke-linejoin:miter;stroke:rgb(0%,0%,0%);stroke-opacity:1;stroke-miterlimit:4;" d="M 552.226172 317.726627 C 551.547005 324.18825 552.852279 328.275999 548.989518 333.513426 C 544.256576 339.943114 553.807357 342.370214 550.836003 346.92635 C 546.463867 353.632813 548.225456 355.932171 546.877734 362.968634 C 546.272852 366.130251 548.29974 364.725088 545.08431 368.344448 C 542.357031 371.420905 539.629753 374.497361 536.902474 377.573818 C 541.890104 380.405435 544.458203 385.366088 545.816536 390.763193 C 533.835612 391.550936 542.664779 399.619981 541.179102 405.006441 C 540.266471 408.349027 535.926172 408.019027 535.692708 412.191937 C 535.406185 417.397429 535.597201 421.527758 533.273177 426.169055 C 532.307487 428.106478 528.773698 430.852934 529.251237 432.864872 C 530.227539 436.984556 532.020964 438.826172 528.349219 441.178756 C 523.297917 444.425535 533.071549 452.952323 529.675716 459.733301 C 526.205599 466.673957 527.181901 473.156871 523.446484 479.69301 C 519.265365 487.006247 531.904232 491.445287 525.271745 498.375297 C 522.024479 501.771109 519.392708 502.228852 522.894661 505.72047 C 524.963997 507.79628 518.840885 511.074995 518.023763 513.321127 C 516.697266 516.940488 520.570638 516.993714 517.153581 522.114044 C 515.476888 524.605016 522.119987 526.542438 521.897135 529.129217 C 521.271029 536.644712 522.873438 544.032466 516.591146 548.599247 C 512.27207 551.75022 513.375716 558.382166 513.747135 564.279594 C 513.980599 568.016052 518.586198 577.309292 514.925065 580.854136 C 512.972461 582.738333 506.552214 586.964469 505.904883 589.572537 C 505.639583 590.637055 507.984831 596.726097 507.783203 599.153197 C 507.464844 602.910945 507.167708 602.932236 507.687695 606.317402 C 507.963607 608.116437 512.027995 613.556123 510.542318 615.578707 C 508.260742 618.687099 504.429818 616.355805 503.941667 613.800962 C 503.10332 609.287407 499.091992 607.860953 495.409635 605.231594 C 491.186068 602.219009 482.250781 600.302877 477.220703 600.792555 C 471.606966 601.335459 471.872266 601.569653 468.699284 596.939 C 466.417708 593.60706 463.594922 595.012223 459.721549 594.118028 C 453.598438 592.712865 451.794401 587.922535 445.554557 587.368985 C 436.693555 586.591887 436.799674 584.367045 432.151628 576.628001 C 431.249609 575.127031 426.431771 576.031871 424.776302 576.031871 C 422.83431 576.031871 421.040885 571.656703 420.075195 570.198313 C 416.520182 564.865079 412.975781 567.419922 408.062435 568.473794 C 406.26901 568.857021 401.345052 570.113152 399.732031 568.548311 C 396.368034 565.269596 400.941797 564.716047 400.803841 563.917658 C 400.602214 562.778624 401.504232 557.860552 400.31569 557.860552 C 396.707617 557.860552 393.099544 557.860552 389.491471 557.860552 C 381.92513 557.860552 380.842708 555.433451 375.260807 550.015056 C 373.615951 548.407634 371.981706 545.74634 369.583398 545.74634 C 364.479036 545.74634 365.476562 543.808917 364.457812 538.976006 C 361.49707 540.753751 358.525716 542.542141 355.554362 544.319886 C 353.431966 537.964714 353.750326 539.816975 349.006771 537.262133 C 344.3375 534.739225 341.366146 530.268251 336.314844 534.696645 C 333.927148 530.981478 335.232422 525.084049 329.194206 527.926312 C 334.20306 515.918551 321.606641 520.708881 317.075326 516.174035 C 314.050911 513.150805 318.70957 508.850153 312.798698 509.403702 C 308.851042 509.776283 307.842904 520.187267 303.53444 513.683063 C 304.478906 517.781457 294.164062 522.45469 290.715169 525.084049 C 291.182096 521.400817 291.659635 517.717586 292.137174 514.034354 C 293.707747 515.162743 295.893815 515.428873 297.485612 516.525326 C 297.517448 511.639189 298.65293 509.478218 301.401432 505.667244 C 305.296029 500.248849 303.927083 499.769816 301.051237 493.723355 C 302.749154 493.063354 309.317969 491.594319 309.190625 489.752703 C 308.882878 485.398826 306.654362 480.768173 311.206901 479.352364 C 314.931706 478.202685 318.858138 478.628492 318.858138 474.487518 C 318.858138 467.663959 317.669596 467.355249 324.631055 467.355249 C 330.191732 467.355249 326.785286 464.587503 329.194206 460.584916 C 332.409635 455.230391 334.691211 458.541041 333.460221 452.398774 C 332.409635 447.129411 334.160612 447.054894 338.670703 447.054894 C 342.703255 447.054894 343.403646 443.914567 345.579102 440.635852 C 352.063021 447.927799 351.585482 446.895217 360.287305 442.424242 C 368.246289 438.336494 364.043945 448.044896 372.512305 445.926506 C 374.019206 445.553924 379.091732 443.286501 379.717839 445.021665 C 380.938216 448.353606 380.768424 452.036838 384.535677 452.036838 C 394.351758 452.036838 393.608919 451.706837 395.455404 461.298143 C 398.310026 460.584916 401.154036 459.882334 404.008659 459.169107 C 404.125391 462.852339 404.252734 466.524925 404.369466 470.208157 C 406.32207 470.13364 412.912109 468.771058 413.548828 470.68719 C 414.854102 474.59397 416.297331 477.510749 419.279297 480.491398 C 423.672656 484.887857 423.460417 481.257851 428.766406 481.257851 C 434.401367 481.257851 434.390755 482.375595 437.733529 487.006247 C 439.144922 488.96496 444.992122 486.835925 445.480273 488.996896 C 445.841081 490.636253 447.008398 499.524977 448.46224 499.354654 C 450.966667 499.045944 460.517448 496.299488 462.438216 497.64078 C 464.104297 498.81175 464.486328 507.902732 464.932031 510.116929 C 466.247917 508.796927 471.309831 505.209502 470.811068 503.410467 C 470.078841 500.727882 467.181771 494.958195 467.786654 492.296901 C 468.741732 488.113346 472.965299 493.052709 472.413477 485.707536 C 472.095117 481.311077 472.551432 478.085588 473.846094 473.774291 C 474.599544 471.251384 477.475391 467.461701 475.087695 465.758472 C 472.466536 463.874276 475.193815 459.36072 476.488477 456.9762 C 478.324349 453.612324 480.733268 453.66555 479.247591 449.75877 C 477.019076 443.914567 478.059049 444.212632 482.388737 439.571334 C 488.522461 433.00326 485.593555 429.703254 485.275195 420.718724 C 485.158464 417.610332 487.556771 414.693553 489.403255 412.436776 C 491.589323 409.764836 486.325781 407.103541 488.257161 403.941924 C 492.544401 396.894816 498.253646 391.859647 495.759831 383.811892 C 492.86276 374.508007 502.986589 370.50542 502.34987 362.255407 C 502.19069 360.254113 497.553255 356.805076 498.763021 354.98475 C 501.150716 351.397325 503.538411 347.820545 505.926107 344.23312 C 507.146484 342.40215 504.546549 336.270527 504.06901 334.226653 C 502.753125 328.520838 504.12207 329.223419 509.290104 326.274705 C 512.441862 324.47567 515.848307 324.16696 515.031185 320.451793 C 514.649154 318.663403 512.059831 311.93565 513.694076 310.892423 C 520.517578 306.517255 526.216211 302.312409 525.685612 293.317234 C 525.218685 285.524964 512.632878 277.093983 507.507292 271.835265 C 492.777865 256.729757 478.059049 241.62425 463.329622 226.518742 C 458.830143 221.898735 404.295182 160.944446 401.069141 162.796707 C 373.66901 178.572861 346.258268 194.349014 318.858138 210.125168 C 323.134766 216.629372 327.422005 223.12293 331.698633 229.627134 C 337.301758 238.143277 337.322982 238.569084 335.179362 248.682003 C 334.394076 252.365234 334.627539 260.530086 331.030078 262.563315 C 326.201628 265.277835 321.373177 268.003001 316.555339 270.717521 C 280.867253 290.836908 245.179167 310.945649 209.491081 331.065035 C 196.703646 338.271821 196.077539 339.325693 181.507292 335.53601 C 175.076432 333.864717 169.208008 333.886007 165.24974 328.531483 C 162.745313 325.146316 153.523503 307.964999 149.628906 307.390159 C 147.803646 307.12403 142.380924 311.520488 140.874023 312.372103 C 132.872591 316.938884 124.871159 321.49502 116.869727 326.051156 C 97.513477 337.079561 78.157227 348.107965 58.790365 359.13637 C 50.714648 363.735086 42.62832 368.344448 34.541992 372.943165 C 79.186589 417.716784 123.831185 462.479757 168.465169 507.242731 C 210.891862 549.791507 251.822266 594.905771 296.679102 634.91035 C 320.142188 655.83877 344.135872 675.766543 369.80625 693.959153 C 380.991276 701.88981 392.876693 712.141117 405.4625 717.804351 C 412.943945 721.168227 433.456901 730.865985 441.511393 726.331139 C 495.32474 696.034962 549.127474 665.728141 602.94082 635.431964 C 670.49668 597.396743 738.317839 559.787329 805.544727 521.155978 C 780.404948 524.881791 751.869336 503.708532 732.682878 490.167865 C 713.082552 476.329134 693.450391 461.755885 676.60918 444.574568 C 635.148177 402.291921 593.687174 360.009274 552.226172 317.726627 " transform="matrix(0.368098,0,0,0.36695,0,0)"/>
<path style="fill:none;stroke-width:2;stroke-linecap:butt;stroke-linejoin:miter;stroke:rgb(0%,0%,0%);stroke-opacity:1;stroke-miterlimit:4;" d="M 510.542318 322.70857 C 487.01556 297.554015 463.488802 272.399459 439.972656 247.234259 C 438.508203 245.669417 419.396029 223.38906 418.165039 224.080996 C 412.59375 227.221324 407.022461 230.361651 401.451172 233.501979 C 330.849674 273.314945 260.248177 313.117265 189.64668 352.930231 C 162.649805 368.152835 135.65293 383.37544 108.656055 398.598044 C 157.025456 448.790058 205.405469 498.992718 253.785482 549.195377 C 290.471094 587.251888 327.602409 626.607111 370.77194 657.435547 C 384.079362 666.941691 397.248828 676.17106 411.182357 684.729783 C 417.761784 688.764306 419.799284 685.240752 426.442383 681.451068 C 455.646549 664.770075 484.850716 648.099726 514.054883 631.429377 C 579.307943 594.171254 644.561003 556.923776 709.814062 519.665653 C 711.437695 518.739523 713.061328 517.813392 714.695573 516.887262 C 683.920833 493.361419 654.270964 468.930735 626.265951 442.158113 C 599.194792 416.279685 573.566862 388.580932 546.877734 362.255407 " transform="matrix(0.368098,0,0,0.36695,0,0)"/>
<path style="fill-rule:evenodd;fill:rgb(0%,0%,0%);fill-opacity:1;stroke-width:2;stroke-linecap:butt;stroke-linejoin:miter;stroke:rgb(0%,0%,0%);stroke-opacity:1;stroke-miterlimit:4;" d="M 375.504883 434.578746 C 382.147982 436.782298 384.058138 432.896808 384.058138 427.340025 C 384.058138 426.296797 370.145833 425.051312 375.504883 434.578746 Z M 375.504883 434.578746 " transform="matrix(0.368098,0,0,0.36695,0,0)"/>
<path style="fill:none;stroke-width:2;stroke-linecap:butt;stroke-linejoin:miter;stroke:rgb(0%,0%,0%);stroke-opacity:1;stroke-miterlimit:4;" d="M 375.504883 434.578746 C 382.147982 436.782298 384.058138 432.896808 384.058138 427.340025 C 384.058138 426.296797 370.145833 425.051312 375.504883 434.578746 " transform="matrix(0.368098,0,0,0.36695,0,0)"/>
<path style="fill-rule:evenodd;fill:rgb(0%,0%,0%);fill-opacity:1;stroke-width:2;stroke-linecap:butt;stroke-linejoin:miter;stroke:rgb(0%,0%,0%);stroke-opacity:1;stroke-miterlimit:4;" d="M 282.161914 529.001475 C 279.710547 526.883084 280.31543 523.64695 282.161914 521.155978 L 270.764648 532.556964 C 274.563737 531.375349 278.362826 530.183089 282.161914 529.001475 Z M 282.161914 529.001475 " transform="matrix(0.368098,0,0,0.36695,0,0)"/>
<path style="fill:none;stroke-width:2;stroke-linecap:butt;stroke-linejoin:miter;stroke:rgb(0%,0%,0%);stroke-opacity:1;stroke-miterlimit:4;" d="M 282.161914 529.001475 C 279.710547 526.883084 280.31543 523.64695 282.161914 521.155978 L 270.764648 532.556964 L 282.161914 529.001475 " transform="matrix(0.368098,0,0,0.36695,0,0)"/>
<path style="fill:none;stroke-width:2;stroke-linecap:butt;stroke-linejoin:miter;stroke:rgb(0%,0%,0%);stroke-opacity:1;stroke-miterlimit:4;" d="M 404.369466 470.218802 C 404.252734 466.53557 404.125391 462.852339 404.008659 459.169107 C 401.164648 459.882334 398.310026 460.595561 395.455404 461.308788 C 393.874219 453.080065 395.22194 452.036838 386.764193 452.036838 C 378.295833 452.036838 383.421419 443.211985 374.942448 445.330376 C 373.467383 445.692312 368.479753 447.906509 367.66263 446.352313 C 366.038997 443.275856 365.869206 439.560689 362.409701 441.338434 C 352.965039 446.192635 352.657292 448.598445 345.579102 440.646497 C 344.517904 442.243274 342.51224 447.054894 340.527799 447.054894 C 335.540169 447.054894 332.208008 446.107474 333.470833 452.398774 C 334.415299 457.167814 334.542643 456.241683 330.085612 459.871689 C 326.328971 462.91621 330.679883 467.365894 324.631055 467.365894 C 318.879362 467.365894 318.858138 466.471699 318.858138 472.166869 C 318.858138 478.468815 317.298177 477.468168 311.206901 479.352364 C 306.962109 480.672367 308.766146 483.621081 309.052669 487.847216 C 309.360417 492.296901 304.913997 492.211739 301.051237 493.723355 C 302.876497 497.576909 305.51888 499.940139 302.950781 503.516918 C 299.597396 508.168861 297.52806 510.649188 297.485612 516.535971 C 295.893815 515.428873 293.707747 515.162743 292.137174 514.034354 C 291.670247 517.717586 291.192708 521.400817 290.715169 525.084049 C 294.174674 522.45469 304.478906 517.781457 303.53444 513.683063 C 306.792318 518.601136 309.455924 512.937901 312.140755 510.106284 C 317.001042 504.975308 315.239453 514.321774 316.014128 515.109517 C 320.556055 519.697589 334.224284 516.663713 329.194206 527.936957 C 335.243034 525.084049 333.927148 530.981478 336.314844 534.696645 C 341.015951 530.587606 342.544076 533.781159 346.778255 536.059228 C 352.636068 539.2102 353.209115 537.283423 355.554362 544.319886 C 358.525716 542.542141 361.49707 540.753751 364.468424 538.976006 C 366.336133 547.896665 367.439779 542.403754 372.172721 547.002471 C 374.390625 549.163442 380.80026 557.860552 383.835286 557.860552 C 386.477669 557.860552 399.275716 559.595716 400.803841 557.860552 C 402.002995 556.497969 401.154036 549.3657 401.217708 547.641181 C 402.268294 521.83727 403.31888 496.022713 404.369466 470.218802 " transform="matrix(0.368098,0,0,0.36695,0,0)"/>
<path style="fill:none;stroke-width:2;stroke-linecap:butt;stroke-linejoin:miter;stroke:rgb(0%,0%,0%);stroke-opacity:1;stroke-miterlimit:4;" d="M 404.369466 470.218802 C 403.117253 501.079173 400.803841 532.077931 400.803841 562.970237 C 400.803841 565.099273 396.198242 565.099273 399.742643 568.548311 C 401.758919 570.507023 407.202865 568.441859 409.357096 568.186375 C 412.041927 567.867019 413.495768 568.101213 416.445898 566.866373 C 418.833594 565.876371 422.250651 573.466383 423.608984 575.499612 C 424.967318 577.532841 429.827604 574.946063 431.801432 576.031871 C 434.125456 577.298647 436.460091 583.802851 437.860872 586.1235 C 438.953906 587.95447 445.894141 587.400921 447.931641 587.571244 C 451.613997 587.901244 453.778841 591.467379 457.227734 593.191898 C 460.071745 594.618352 462.947591 594.927062 466.056901 594.650287 C 469.091927 594.373513 469.336003 600.153844 471.702474 601.324814 C 474.366081 602.644816 479.735742 599.791908 482.749544 600.260296 C 484.670313 600.558361 491.377083 603.059978 493.435807 603.815785 C 495.929622 604.741916 507.061589 616.185482 505.427344 616.472902 C 516.824609 614.460963 504.005339 607.626759 507.23138 601.175781 C 510.563542 594.5119 504.037174 591.371572 509.290104 586.293822 C 516.463802 579.363812 516.55931 576.755743 515.880143 566.759921 C 515.678516 563.683464 511.614128 554.901193 512.675326 551.44151 C 513.428776 549.003764 519.169857 547.992472 520.517578 545.74634 C 522.204883 542.925367 521.366536 535.622775 521.631836 532.333415 C 522.247331 524.977597 513.375716 524.615661 520.156771 517.600489 C 505.724479 515.641776 491.292188 513.693709 476.859896 511.734996 C 475.108919 511.490157 465.176107 511.330479 464.794076 509.424992 C 462.5125 497.992071 464.114909 497.438522 452.462956 498.864976 C 442.848503 500.035945 450.627083 493.15916 445.342318 488.379475 C 443.612565 486.825279 439.29349 489.167219 437.733529 487.006247 C 435.356445 483.706242 434.815234 481.257851 430.729622 481.257851 C 423.863672 481.257851 422.473503 485.07947 417.432813 478.373008 C 411.967643 471.081061 414.758594 469.792995 404.369466 470.218802 " transform="matrix(0.368098,0,0,0.36695,0,0)"/>
<path style="fill:none;stroke-width:2;stroke-linecap:butt;stroke-linejoin:miter;stroke:rgb(0%,0%,0%);stroke-opacity:1;stroke-miterlimit:4;" d="M 567.900065 240.76199 L 564.695247 242.901671 L 567.900065 240.76199 " transform="matrix(0.368098,0,0,0.36695,0,0)"/>
<path style=" stroke:none;fill-rule:nonzero;fill:rgb(0%,0%,0%);fill-opacity:1;" d="M 246.550781 9.125 C 245.574219 9.832031 244.738281 12.089844 243.929688 12.519531 C 240.921875 14.136719 241.1875 11.15625 239.90625 15.425781 C 239.546875 16.621094 239.601562 16.445312 238.335938 16.445312 C 237.4375 16.445312 237.570312 18.164062 237.371094 18.929688 C 237.042969 20.167969 238.480469 19.488281 237.0625 20.664062 C 236.144531 21.425781 235.640625 21.8125 235.140625 22.851562 C 234.5 24.183594 235.988281 24.691406 234.101562 25.175781 C 231.015625 25.96875 230.492188 26.007812 228.769531 28.636719 C 228.230469 29.460938 226.472656 31.148438 226.21875 31.871094 C 226.015625 32.460938 226.398438 33.703125 226.457031 34.328125 C 226.53125 35.078125 224.980469 35.082031 224.515625 35.53125 C 221.964844 38.011719 220.160156 40.0625 220.417969 43.914062 C 220.53125 45.578125 216.621094 45.652344 215.863281 46.90625 C 214.96875 48.382812 217.03125 51.617188 215.273438 52.59375 C 213.683594 53.46875 212.734375 55.960938 211.769531 57.464844 C 210.9375 58.765625 210.90625 60.660156 209.898438 61.308594 C 207.414062 62.890625 207.230469 63.550781 206.257812 66.367188 C 206.011719 67.074219 204.867188 67.554688 204.277344 67.972656 C 203.558594 68.480469 204.019531 70.003906 204.0625 70.828125 C 204.070312 70.320312 204.328125 69.757812 204.453125 69.261719 C 207.074219 71.351562 205.472656 72.019531 204.976562 75.144531 C 202.847656 71.117188 201.441406 73.417969 201.3125 76.964844 C 201.28125 77.890625 200.253906 78.578125 199.46875 78.871094 C 198.3125 79.304688 198.445312 82.113281 198.320312 83.351562 C 198.113281 85.417969 198.3125 86.027344 196.738281 87.285156 C 195.046875 88.632812 194.765625 88.730469 194.523438 90.855469 C 194.246094 93.347656 195.695312 96.242188 197.632812 97.761719 C 195.171875 99.546875 194.75 99.519531 194.75 102.535156 C 194.75 105.648438 193.34375 104.976562 193.5 107.632812 C 193.605469 109.410156 192.808594 111.707031 191.273438 112.6875 C 190.816406 112.980469 188.765625 113.890625 188.894531 114.46875 C 189.070312 115.273438 190.082031 117.695312 189.765625 118.417969 C 189.046875 120.046875 184.847656 119.625 185.359375 121.828125 C 186.21875 125.546875 186.480469 125.949219 184.382812 129.082031 C 182.871094 131.339844 185.421875 131.921875 184.261719 134.230469 C 182.636719 137.464844 181.710938 138.351562 182.769531 141.753906 C 183.382812 143.722656 181.097656 145.980469 180.074219 147.652344 C 179.398438 148.761719 179.359375 148.65625 179.929688 149.863281 C 180.699219 151.5 179.683594 151.339844 179.105469 152.851562 C 178.644531 154.042969 178.636719 154.648438 178.683594 155.941406 C 178.703125 156.539062 179.496094 158.976562 179.40625 159.339844 C 178.667969 162.296875 175.09375 161.585938 176.414062 165.042969 C 176.980469 166.527344 174.90625 168.335938 174.523438 170.109375 C 174.28125 171.242188 175.511719 170.742188 175.015625 172.15625 C 174.5625 173.457031 174.203125 174.722656 173.867188 176.058594 C 173.625 177.011719 173.886719 178.113281 173.960938 179.082031 C 174.0625 180.4375 172.105469 180.335938 172.257812 180.890625 C 173.210938 184.382812 173.699219 184.636719 171.140625 187.1875 C 170.851562 185.746094 170.5625 184.304688 170.273438 182.863281 C 170.15625 182.285156 166.351562 183.082031 165.6875 183.164062 C 164.164062 183.351562 164.40625 181.320312 164.109375 180.015625 C 163.71875 178.285156 161.960938 179.855469 161.128906 178.707031 C 160.253906 177.496094 160.054688 176.597656 158.550781 176.597656 C 157.480469 176.597656 155.695312 177.675781 155.03125 177.007812 C 153.933594 175.914062 152.949219 174.878906 152.453125 173.394531 C 151.914062 171.785156 150.429688 172.484375 148.847656 172.542969 C 148.800781 171.191406 148.757812 169.839844 148.714844 168.488281 C 147.664062 168.75 146.617188 169.011719 145.566406 169.273438 C 144.984375 166.257812 145.476562 165.878906 142.367188 165.878906 C 139.25 165.878906 141.136719 162.632812 138.015625 163.410156 C 137.472656 163.546875 135.636719 164.359375 135.332031 163.789062 C 134.738281 162.660156 134.679688 161.296875 133.402344 161.949219 C 129.925781 163.730469 129.8125 164.613281 127.207031 161.695312 C 126.8125 162.28125 126.078125 164.046875 125.347656 164.046875 C 123.515625 164.046875 122.28125 163.703125 122.75 166.007812 C 123.101562 167.753906 123.136719 167.421875 121.503906 168.75 C 120.121094 169.871094 121.722656 171.5 119.496094 171.5 C 117.378906 171.5 117.371094 171.175781 117.371094 173.265625 C 117.371094 175.578125 116.792969 175.207031 114.554688 175.902344 C 112.992188 176.386719 113.65625 177.46875 113.761719 179.015625 C 113.875 180.648438 112.238281 180.621094 110.816406 181.175781 C 111.488281 182.585938 112.460938 183.453125 111.511719 184.765625 C 110.28125 186.472656 109.519531 187.382812 109.503906 189.542969 C 108.917969 189.136719 108.113281 189.039062 107.535156 188.625 C 107.359375 189.976562 107.1875 191.328125 107.011719 192.679688 C 108.28125 191.714844 112.078125 190 111.730469 188.496094 C 112.929688 190.300781 113.90625 188.222656 114.894531 187.183594 C 116.683594 185.300781 116.035156 188.730469 116.320312 189.019531 C 118.003906 190.710938 123.015625 189.582031 121.175781 193.726562 C 123.402344 192.675781 122.917969 194.84375 123.796875 196.210938 C 125.527344 194.695312 126.085938 195.871094 127.648438 196.707031 C 129.804688 197.863281 130.015625 197.15625 130.878906 199.738281 C 131.972656 199.085938 133.066406 198.429688 134.160156 197.777344 C 134.53125 199.550781 134.164062 200.261719 136.042969 200.261719 C 137.097656 200.261719 138.097656 201.792969 138.8125 202.484375 C 141.59375 205.179688 142.914062 204.710938 146.867188 204.710938 C 149.367188 204.710938 145.21875 208.328125 147.582031 208.695312 C 148.949219 208.910156 153.429688 207.445312 153.828125 208.042969 C 154.367188 208.84375 155.21875 210.929688 156.058594 211.375 C 156.785156 211.765625 158.605469 210.816406 159.074219 211.59375 C 159.621094 212.503906 160.417969 214.75 161.304688 215.300781 C 162.421875 215.988281 164.519531 215.21875 165.761719 215.6875 C 166.808594 216.085938 167.5 217.472656 168.78125 217.914062 C 169.515625 218.164062 171.40625 217.878906 171.925781 218.171875 C 172.6875 218.605469 172.957031 220.722656 173.933594 220.628906 C 175.828125 220.445312 177.21875 219.917969 178.765625 221.039062 C 180.71875 222.453125 183.414062 221.789062 185.300781 224.1875 C 186.28125 225.429688 184.722656 226.449219 186.8125 226.082031 C 188.652344 225.757812 187.71875 224.304688 187.082031 222.929688 C 186.320312 221.285156 186.679688 219.300781 186.878906 217.257812 C 186.925781 216.769531 185.890625 216.664062 186.390625 216.183594 C 186.992188 215.605469 187.589844 215.027344 188.191406 214.449219 C 189.621094 213.070312 190.082031 213.0625 189.828125 211.292969 C 189.492188 208.929688 189.859375 206.863281 189.5 204.710938 C 189.417969 204.195312 188.5625 202.464844 188.929688 202.199219 C 189.902344 201.492188 191.550781 200.867188 191.652344 199.609375 C 191.9375 196.199219 192.699219 194.597656 190.359375 192.113281 C 189.742188 191.453125 191.738281 190.476562 191.261719 189.527344 C 190.175781 187.363281 192.269531 187.832031 192.78125 185.878906 C 193.0625 184.8125 190.925781 185.410156 192.171875 184.109375 C 192.636719 183.625 194.375 182.355469 194.480469 181.699219 C 194.820312 179.597656 191.382812 178.28125 192.675781 176.023438 C 193.796875 174.070312 193.175781 172.28125 194.113281 170.410156 C 195.882812 166.878906 195.648438 166.753906 193.914062 163.195312 C 193.382812 162.101562 194.132812 162.117188 195.113281 161.488281 C 195.730469 161.09375 194.96875 159.488281 194.816406 158.84375 C 194.578125 157.84375 196.949219 155.546875 197.03125 154.09375 C 197.082031 153.125 196.800781 151.183594 197.238281 150.320312 C 197.558594 149.695312 199.367188 149.125 199.128906 148.378906 C 198.429688 146.207031 197.542969 143.613281 200.910156 143.390625 C 200.414062 141.410156 199.464844 139.589844 197.632812 138.554688 C 198.941406 137.082031 200.25 135.609375 201.558594 134.136719 C 201.71875 133.953125 201.132812 130.738281 201.234375 130.007812 C 201.378906 129.011719 203.65625 126.910156 203.027344 126.28125 C 201.261719 124.523438 201.148438 123.644531 202.625 121.648438 C 203.515625 120.445312 204.164062 114.019531 203.671875 112.550781 C 202.914062 110.304688 203.820312 110.042969 205.4375 108.183594 C 205.835938 107.726562 204.890625 106.789062 204.613281 106.351562 C 203.863281 105.164062 204.328125 104.941406 204.976562 103.648438 C 205.941406 101.722656 206.816406 101.140625 208.582031 99.847656 C 210.320312 98.578125 209.242188 98.175781 209.964844 96.378906 C 210.433594 95.207031 212.820312 93.5625 212.976562 92.925781 C 213.496094 90.796875 211.460938 90.199219 212.625 87.882812 C 213.988281 85.15625 212.476562 82.625 213.304688 79.851562 C 213.769531 78.28125 215.453125 76.90625 217.042969 76.585938 C 218.414062 76.308594 218.183594 72.789062 218.355469 71.484375 C 217.347656 71.703125 216.34375 71.921875 215.339844 72.140625 C 217.492188 69.074219 215.726562 64.125 220.980469 64.6875 C 220.910156 63.59375 220.328125 61.507812 220.714844 60.503906 C 221.304688 58.964844 223.660156 58.921875 223.546875 57.035156 C 223.4375 55.21875 223.070312 53.984375 224.058594 52.464844 C 224.941406 51.105469 224.164062 49.984375 224.515625 48.214844 C 224.625 47.671875 224.316406 45.40625 224.515625 45.207031 C 225.296875 44.429688 228.03125 44.085938 228.121094 43.441406 C 228.371094 41.742188 229.242188 41.449219 230.027344 40.109375 C 230.703125 38.957031 231.074219 40.164062 231.074219 38.390625 C 231.074219 37.921875 230.808594 36.40625 231.222656 36.066406 C 232.738281 34.816406 234.257812 33.570312 235.773438 32.320312 C 237.109375 31.222656 235.660156 29.328125 236.320312 27.949219 C 236.898438 26.738281 239.199219 26.300781 239.730469 25.070312 C 240.242188 23.878906 239.570312 21.765625 239.992188 20.761719 C 240.164062 20.359375 241.234375 20.367188 241.4375 19.976562 C 241.78125 19.3125 241.03125 17.972656 241.4375 17.359375 C 242.007812 16.503906 244.105469 16.761719 244.292969 16.070312 C 245.097656 13.136719 247.339844 11.167969 248.386719 8.339844 C 247.792969 8.589844 247.089844 8.773438 246.550781 9.125 Z M 201.304688 90.4375 C 200.34375 90.4375 199.382812 90.4375 198.421875 90.4375 C 198.644531 89.453125 198.773438 86.386719 199.847656 86.386719 C 202.222656 86.386719 201.304688 88.339844 201.304688 90.4375 Z M 209.042969 91.488281 C 207.863281 94.160156 205.492188 91.765625 207.863281 89.132812 C 208.777344 89.683594 209.191406 90.46875 209.042969 91.488281 Z M 209.042969 91.488281 "/>
<path style="fill:none;stroke-width:2;stroke-linecap:butt;stroke-linejoin:miter;stroke:rgb(0%,0%,0%);stroke-opacity:1;stroke-miterlimit:4;" d="M 680.843359 8.473562 C 680.249089 11.560663 679.654818 14.647765 679.060547 17.734867 C 682.742904 16.191316 686.42526 14.647765 690.107617 13.104214 C 687.486458 9.048401 686.276693 5.07775 680.843359 8.473562 Z M 680.843359 8.473562 " transform="matrix(0.368098,0,0,0.36695,0,0)"/>
<path style=" stroke:none;fill-rule:nonzero;fill:rgb(0%,0%,0%);fill-opacity:1;" d="M 250.617188 3.109375 C 250.398438 4.242188 250.179688 5.375 249.960938 6.507812 C 251.316406 5.941406 252.671875 5.375 254.027344 4.808594 C 253.0625 3.320312 252.617188 1.863281 250.617188 3.109375 "/>
<path style="fill:none;stroke-width:2;stroke-linecap:butt;stroke-linejoin:miter;stroke:rgb(0%,0%,0%);stroke-opacity:1;stroke-miterlimit:4;" d="M 383.707943 430.671966 L 432.873242 481.257851 " transform="matrix(0.368098,0,0,0.36695,0,0)"/>
<path style="fill:none;stroke-width:2;stroke-linecap:butt;stroke-linejoin:miter;stroke:rgb(0%,0%,0%);stroke-opacity:1;stroke-miterlimit:4;" d="M 356.626172 646.215529 L 453.173958 590.988346 " transform="matrix(0.368098,0,0,0.36695,0,0)"/>
<path style="fill:none;stroke-width:2;stroke-linecap:butt;stroke-linejoin:miter;stroke:rgb(0%,0%,0%);stroke-opacity:1;stroke-miterlimit:4;" d="M 334.181836 627.330984 L 424.670182 576.031871 " transform="matrix(0.368098,0,0,0.36695,0,0)"/>
<path style="fill:none;stroke-width:2;stroke-linecap:butt;stroke-linejoin:miter;stroke:rgb(0%,0%,0%);stroke-opacity:1;stroke-miterlimit:4;" d="M 314.942318 609.872892 L 400.453646 561.064751 " transform="matrix(0.368098,0,0,0.36695,0,0)"/>
<path style="fill:none;stroke-width:2;stroke-linecap:butt;stroke-linejoin:miter;stroke:rgb(0%,0%,0%);stroke-opacity:1;stroke-miterlimit:4;" d="M 271.114844 313.809202 L 379.78151 426.392604 " transform="matrix(0.368098,0,0,0.36695,0,0)"/>
<path style="fill:none;stroke-width:2;stroke-linecap:butt;stroke-linejoin:miter;stroke:rgb(0%,0%,0%);stroke-opacity:1;stroke-miterlimit:4;" d="M 276.102474 311.307585 L 456.028581 498.715943 " transform="matrix(0.368098,0,0,0.36695,0,0)"/>
<path style="fill:none;stroke-width:2;stroke-linecap:butt;stroke-linejoin:miter;stroke:rgb(0%,0%,0%);stroke-opacity:1;stroke-miterlimit:4;" d="M 514.818945 558.211843 C 534.875586 575.691225 554.475911 585.676402 579.658138 593.841254 " transform="matrix(0.368098,0,0,0.36695,0,0)"/>
<path style="fill:none;stroke-width:2;stroke-linecap:butt;stroke-linejoin:miter;stroke:rgb(0%,0%,0%);stroke-opacity:1;stroke-miterlimit:4;" d="M 512.675326 551.44151 C 534.005404 569.793797 555.335482 584.111561 582.502148 592.063509 " transform="matrix(0.368098,0,0,0.36695,0,0)"/>
<path style="fill:none;stroke-width:2;stroke-linecap:butt;stroke-linejoin:miter;stroke:rgb(0%,0%,0%);stroke-opacity:1;stroke-miterlimit:4;" d="M 382.986328 666.164593 L 493.435807 603.815785 " transform="matrix(0.368098,0,0,0.36695,0,0)"/>
<path style="fill:none;stroke-width:2;stroke-linecap:butt;stroke-linejoin:miter;stroke:rgb(0%,0%,0%);stroke-opacity:1;stroke-miterlimit:4;" d="M 508.048503 595.267707 L 539.757096 577.096389 " transform="matrix(0.368098,0,0,0.36695,0,0)"/>
<path style="fill:none;stroke-width:2;stroke-linecap:butt;stroke-linejoin:miter;stroke:rgb(0%,0%,0%);stroke-opacity:1;stroke-miterlimit:4;" d="M 544.033724 575.318644 L 685.83099 494.085291 " transform="matrix(0.368098,0,0,0.36695,0,0)"/>
<path style="fill:none;stroke-width:2;stroke-linecap:butt;stroke-linejoin:miter;stroke:rgb(0%,0%,0%);stroke-opacity:1;stroke-miterlimit:4;" d="M 516.591146 555.007644 L 660.532031 473.423 " transform="matrix(0.368098,0,0,0.36695,0,0)"/>
<path style="fill:none;stroke-width:2;stroke-linecap:butt;stroke-linejoin:miter;stroke:rgb(0%,0%,0%);stroke-opacity:1;stroke-miterlimit:4;" d="M 516.951953 523.295659 L 638.798698 454.187164 " transform="matrix(0.368098,0,0,0.36695,0,0)"/>
<path style="fill:none;stroke-width:2;stroke-linecap:butt;stroke-linejoin:miter;stroke:rgb(0%,0%,0%);stroke-opacity:1;stroke-miterlimit:4;" d="M 525.505208 489.805929 L 619.919987 436.0052 " transform="matrix(0.368098,0,0,0.36695,0,0)"/>
<path style="fill:none;stroke-width:2;stroke-linecap:butt;stroke-linejoin:miter;stroke:rgb(0%,0%,0%);stroke-opacity:1;stroke-miterlimit:4;" d="M 120.05332 400.024498 L 417.89974 230.436168 " transform="matrix(0.368098,0,0,0.36695,0,0)"/>
<path style="fill:none;stroke-width:2;stroke-linecap:butt;stroke-linejoin:miter;stroke:rgb(0%,0%,0%);stroke-opacity:1;stroke-miterlimit:4;" d="M 132.883203 423.890987 L 290.354362 333.758265 " transform="matrix(0.368098,0,0,0.36695,0,0)"/>
<path style="fill:none;stroke-width:2;stroke-linecap:butt;stroke-linejoin:miter;stroke:rgb(0%,0%,0%);stroke-opacity:1;stroke-miterlimit:4;" d="M 295.341992 331.256648 L 441.06569 248.607487 " transform="matrix(0.368098,0,0,0.36695,0,0)"/>
<path style="fill:none;stroke-width:2;stroke-linecap:butt;stroke-linejoin:miter;stroke:rgb(0%,0%,0%);stroke-opacity:1;stroke-miterlimit:4;" d="M 155.327539 447.054894 L 312.798698 357.273463 " transform="matrix(0.368098,0,0,0.36695,0,0)"/>
<path style="fill:none;stroke-width:2;stroke-linecap:butt;stroke-linejoin:miter;stroke:rgb(0%,0%,0%);stroke-opacity:1;stroke-miterlimit:4;" d="M 317.436133 354.420556 L 463.159831 272.122685 " transform="matrix(0.368098,0,0,0.36695,0,0)"/>
<path style="fill:none;stroke-width:2;stroke-linecap:butt;stroke-linejoin:miter;stroke:rgb(0%,0%,0%);stroke-opacity:1;stroke-miterlimit:4;" d="M 176.34987 468.792348 L 333.821029 379.000272 " transform="matrix(0.368098,0,0,0.36695,0,0)"/>
<path style="fill:none;stroke-width:2;stroke-linecap:butt;stroke-linejoin:miter;stroke:rgb(0%,0%,0%);stroke-opacity:1;stroke-miterlimit:4;" d="M 338.458464 376.5093 L 483.460547 293.849493 " transform="matrix(0.368098,0,0,0.36695,0,0)"/>
<path style="fill:none;stroke-width:2;stroke-linecap:butt;stroke-linejoin:miter;stroke:rgb(0%,0%,0%);stroke-opacity:1;stroke-miterlimit:4;" d="M 195.589388 488.741411 L 353.421354 398.95998 " transform="matrix(0.368098,0,0,0.36695,0,0)"/>
<path style="fill:none;stroke-width:2;stroke-linecap:butt;stroke-linejoin:miter;stroke:rgb(0%,0%,0%);stroke-opacity:1;stroke-miterlimit:4;" d="M 357.697982 396.458364 L 502.34987 313.809202 " transform="matrix(0.368098,0,0,0.36695,0,0)"/>
<path style="fill:none;stroke-width:2;stroke-linecap:butt;stroke-linejoin:miter;stroke:rgb(0%,0%,0%);stroke-opacity:1;stroke-miterlimit:4;" d="M 214.828906 509.041766 L 372.660872 418.909044 " transform="matrix(0.368098,0,0,0.36695,0,0)"/>
<path style="fill:none;stroke-width:2;stroke-linecap:butt;stroke-linejoin:miter;stroke:rgb(0%,0%,0%);stroke-opacity:1;stroke-miterlimit:4;" d="M 377.287695 416.769363 L 505.904883 343.370861 " transform="matrix(0.368098,0,0,0.36695,0,0)"/>
<path style="fill:none;stroke-width:2;stroke-linecap:butt;stroke-linejoin:miter;stroke:rgb(0%,0%,0%);stroke-opacity:1;stroke-miterlimit:4;" d="M 234.068424 529.001475 L 309.243685 486.601731 " transform="matrix(0.368098,0,0,0.36695,0,0)"/>
<path style="fill:none;stroke-width:2;stroke-linecap:butt;stroke-linejoin:miter;stroke:rgb(0%,0%,0%);stroke-opacity:1;stroke-miterlimit:4;" d="M 379.78151 445.979731 L 391.900391 439.220043 " transform="matrix(0.368098,0,0,0.36695,0,0)"/>
<path style="fill:none;stroke-width:2;stroke-linecap:butt;stroke-linejoin:miter;stroke:rgb(0%,0%,0%);stroke-opacity:1;stroke-miterlimit:4;" d="M 396.177018 436.367136 L 495.21862 380.788662 " transform="matrix(0.368098,0,0,0.36695,0,0)"/>
<path style="fill:none;stroke-width:2;stroke-linecap:butt;stroke-linejoin:miter;stroke:rgb(0%,0%,0%);stroke-opacity:1;stroke-miterlimit:4;" d="M 253.658138 548.950538 L 315.65332 513.683063 " transform="matrix(0.368098,0,0,0.36695,0,0)"/>
<path style="fill:none;stroke-width:2;stroke-linecap:butt;stroke-linejoin:miter;stroke:rgb(0%,0%,0%);stroke-opacity:1;stroke-miterlimit:4;" d="M 404.369466 464.15105 L 411.490104 459.520398 " transform="matrix(0.368098,0,0,0.36695,0,0)"/>
<path style="fill:none;stroke-width:2;stroke-linecap:butt;stroke-linejoin:miter;stroke:rgb(0%,0%,0%);stroke-opacity:1;stroke-miterlimit:4;" d="M 415.766732 456.678135 L 486.315169 416.418072 " transform="matrix(0.368098,0,0,0.36695,0,0)"/>
<path style="fill:none;stroke-width:2;stroke-linecap:butt;stroke-linejoin:miter;stroke:rgb(0%,0%,0%);stroke-opacity:1;stroke-miterlimit:4;" d="M 543.312109 384.344151 L 559.34681 375.082846 " transform="matrix(0.368098,0,0,0.36695,0,0)"/>
<path style="fill:none;stroke-width:2;stroke-linecap:butt;stroke-linejoin:miter;stroke:rgb(0%,0%,0%);stroke-opacity:1;stroke-miterlimit:4;" d="M 272.897656 568.899602 L 335.603841 533.270191 " transform="matrix(0.368098,0,0,0.36695,0,0)"/>
<path style="fill:none;stroke-width:2;stroke-linecap:butt;stroke-linejoin:miter;stroke:rgb(0%,0%,0%);stroke-opacity:1;stroke-miterlimit:4;" d="M 426.463607 481.971078 L 431.09043 479.118171 " transform="matrix(0.368098,0,0,0.36695,0,0)"/>
<path style="fill:none;stroke-width:2;stroke-linecap:butt;stroke-linejoin:miter;stroke:rgb(0%,0%,0%);stroke-opacity:1;stroke-miterlimit:4;" d="M 434.656055 476.97849 L 479.894922 451.334256 " transform="matrix(0.368098,0,0,0.36695,0,0)"/>
<path style="fill:none;stroke-width:2;stroke-linecap:butt;stroke-linejoin:miter;stroke:rgb(0%,0%,0%);stroke-opacity:1;stroke-miterlimit:4;" d="M 535.841276 419.622271 L 579.297331 394.680619 " transform="matrix(0.368098,0,0,0.36695,0,0)"/>
<path style="fill:none;stroke-width:2;stroke-linecap:butt;stroke-linejoin:miter;stroke:rgb(0%,0%,0%);stroke-opacity:1;stroke-miterlimit:4;" d="M 293.208984 588.85931 L 368.745052 545.384403 " transform="matrix(0.368098,0,0,0.36695,0,0)"/>
<path style="fill:none;stroke-width:2;stroke-linecap:butt;stroke-linejoin:miter;stroke:rgb(0%,0%,0%);stroke-opacity:1;stroke-miterlimit:4;" d="M 454.245768 496.938198 L 472.063281 486.601731 " transform="matrix(0.368098,0,0,0.36695,0,0)"/>
<path style="fill:none;stroke-width:2;stroke-linecap:butt;stroke-linejoin:miter;stroke:rgb(0%,0%,0%);stroke-opacity:1;stroke-miterlimit:4;" d="M 530.843034 453.112001 L 599.258464 414.278391 " transform="matrix(0.368098,0,0,0.36695,0,0)"/>
</g>
</svg>
